<svg width="748.0800048828124px" height="298.0399963378906px" xmlns="http://www.w3.org/2000/svg" viewBox="-124.04000244140622 -74.0199981689453 748.0800048828124 298.0399963378906" style="background: none;" preserveAspectRatio="xMidYMid"><defs><linearGradient id="editing-outline-gradient" x1="-0.5" x2="1.5" y1="0.5" y2="0.5"><stop offset="0" stop-color="#4e4e50"></stop><stop offset="1" stop-color="#c3073f"></stop></linearGradient><filter id="editing-outline" x="-100%" y="-100%" width="300%" height="300%"><feMorphology in="SourceGraphic" operator="dilate" radius="4" result="outline"></feMorphology><feComposite operator="out" in="outline" in2="SourceAlpha"></feComposite></filter></defs><g filter="url(#editing-outline)"><g transform="translate(-20.30996036529541, 139.3799934387207)"><path d="M16.88-84.74L16.88-84.74L16.88-84.74Q10.96-89.26 10.96-98.92L10.96-98.92L10.96-98.92Q10.96-108.58 17.31-113.62L17.31-113.62L17.31-113.62Q23.66-118.67 34.63-118.67L34.63-118.67L34.63-118.67Q41.59-118.67 58.12-116.23L58.12-116.23L69.95-114.49L69.95-114.49Q75.86-113.80 82.04-113.80L82.04-113.80L82.04-113.80Q88.22-113.80 92.39-116.41L92.39-116.41L92.39-116.41Q98.66-110.84 98.66-102.83L98.66-102.83L98.66-102.83Q98.66-94.83 91.52-89.09L91.52-89.09L91.52-89.09Q84.22-83.00 74.82-83.00L74.82-83.00L74.82-83.00Q70.30-83.00 62.99-84.22L62.99-84.22L62.99-84.22Q54.46-57.42 54.46-38.80L54.46-38.80L54.46-38.80Q54.46-20.18 63.86-10.44L63.86-10.44L63.86-10.44Q59.51-2.61 53.07 0.44L53.07 0.44L53.07 0.44Q46.63 3.48 36.98 3.48L36.98 3.48L36.98 3.48Q27.32 3.48 21.32-1.83L21.32-1.83L21.32-1.83Q15.31-7.13 15.31-18.10L15.31-18.10L15.31-18.10Q15.31-30.80 22.27-51.68L22.27-51.68L22.27-51.68Q29.23-72.38 39.67-88.22L39.67-88.22L39.67-88.22Q34.63-88.74 29.41-88.74L29.41-88.74L29.41-88.74Q18.62-88.74 16.88-84.74ZM92.66-5.22L92.66-5.22L92.66-5.22Q88.57-9.74 86.74-16.88L86.74-16.88L86.74-16.88Q84.91-24.01 84.91-35.67L84.91-35.67L84.91-35.67Q84.91-47.33 88.91-57.94L88.91-57.94L88.91-57.94Q92.92-68.56 100.22-76.21L100.22-76.21L100.22-76.21Q115.19-92.22 139.90-92.22L139.90-92.22L139.90-92.22Q148.77-92.22 155.21-89.26L155.21-89.26L184.96-92.22L172.09-24.36L172.09-24.36Q171.56-22.27 171.56-18.44L171.56-18.44L171.56-18.44Q171.56-14.62 173.91-12.18L173.91-12.18L173.91-12.18Q176.26-9.74 179.74-9.40L179.74-9.40L179.74-9.40Q178.00-3.48 171.65 0L171.65 0L171.65 0Q165.30 3.48 158.17 3.48L158.17 3.48L158.17 3.48Q151.03 3.48 146.25 0.78L146.25 0.78L146.25 0.78Q141.46-1.91 140.07-6.44L140.07-6.44L140.07-6.44Q137.29-2.09 131.37 0.70L131.37 0.70L131.37 0.70Q125.45 3.48 117.54 3.48L117.54 3.48L117.54 3.48Q109.62 3.48 103.18 1.39L103.18 1.39L103.18 1.39Q96.74-0.70 92.66-5.22ZM129.37-75.86L129.37-75.86L129.37-75.86Q127.37-72.73 125.63-67.43L125.63-67.43L125.63-67.43Q123.89-62.12 121.02-47.94L121.02-47.94L121.02-47.94Q118.15-33.76 118.15-23.66L118.15-23.66L118.15-23.66Q118.15-13.57 119.71-10.61L119.71-10.61L119.71-10.61Q121.28-7.66 124.06-7.66L124.06-7.66L124.06-7.66Q129.63-7.66 133.72-12.96L133.72-12.96L133.72-12.96Q137.81-18.27 139.37-27.67L139.37-27.67L148.60-78.65L148.60-78.65Q144.94-81.78 140.68-81.78L140.68-81.78L140.68-81.78Q136.42-81.78 133.89-80.39L133.89-80.39L133.89-80.39Q131.37-79.00 129.37-75.86ZM246.38-61.07L246.38-61.07L246.38-61.07Q248.82-67.51 248.82-73.08L248.82-73.08L248.82-73.08Q248.82-83.35 240.47-83.35L240.47-83.35L240.47-83.35Q236.12-83.35 232.55-79.43L232.55-79.43L232.55-79.43Q228.98-75.52 228.98-70.64L228.98-70.64L228.98-70.64Q228.98-67.16 231.77-64.38L231.77-64.38L231.77-64.38Q235.77-60.55 246.04-54.29L246.04-54.29L246.04-54.29Q256.30-48.02 260.22-42.89L260.22-42.89L260.22-42.89Q264.13-37.76 264.13-30.71L264.13-30.71L264.13-30.71Q264.13-23.66 260.74-17.23L260.74-17.23L260.74-17.23Q257.35-10.79 251.26-6.26L251.26-6.26L251.26-6.26Q238.21 3.48 217.33 3.48L217.33 3.48L217.33 3.48Q206.02 3.48 197.32-2.44L197.32-2.44L197.32-2.44Q188.62-8.18 188.62-14.96L188.62-14.96L188.62-14.96Q188.62-21.75 193.58-25.75L193.58-25.75L193.58-25.75Q198.53-29.75 205.84-29.75L205.84-29.75L205.84-29.75Q213.15-29.75 217.67-26.97L217.67-26.97L217.67-26.97Q215.41-21.23 215.41-17.40L215.41-17.40L215.41-17.40Q215.41-5.92 225.16-5.92L225.16-5.92L225.16-5.92Q229.33-5.92 232.12-8.53L232.12-8.53L232.12-8.53Q234.90-11.14 234.90-15.66L234.90-15.66L234.90-15.66Q234.90-24.53 219.94-33.93L219.94-33.93L219.94-33.93Q207.76-41.93 204.97-45.07L204.97-45.07L204.97-45.07Q200.27-50.63 200.27-57.59L200.27-57.59L200.27-57.59Q200.27-64.55 203.58-71.17L203.58-71.17L203.58-71.17Q206.89-77.78 212.98-82.48L212.98-82.48L212.98-82.48Q225.68-92.22 247.78-92.22L247.78-92.22L247.78-92.22Q259.09-92.22 265.79-87.70L265.79-87.70L265.79-87.70Q272.48-83.17 272.48-75.52L272.48-75.52L272.48-75.52Q272.48-67.86 267.87-63.51L267.87-63.51L267.87-63.51Q263.26-59.16 254.91-59.16L254.91-59.16L254.91-59.16Q249.17-59.16 246.38-61.07ZM323.81-82.48L323.81-82.48L323.81-82.48Q333.21-92.22 353.05-92.22L353.05-92.22L353.05-92.22Q364.01-92.22 370.01-86.39L370.01-86.39L370.01-86.39Q376.01-80.56 376.01-69.86L376.01-69.86L376.01-69.86Q376.01-59.16 370.01-51.59L370.01-51.59L370.01-51.59Q364.01-44.02 352.87-40.89L352.87-40.89L352.87-40.89Q353.74-37.41 354.96-33.76L354.96-33.76L357.40-26.80L357.40-26.80Q360.70-17.92 363.31-14.79L363.31-14.79L363.31-14.79Q365.92-11.66 369.40-10.61L369.40-10.61L369.40-10.61Q367.49-3.48 360.53 0.35L360.53 0.35L360.53 0.35Q354.96 3.48 347.30 3.48L347.30 3.48L347.30 3.48Q324.86 3.48 321.90-31.15L321.90-31.15L321.90-31.15Q321.38-36.02 321.38-40.89L321.38-40.89L321.38-40.89Q330.08-43.33 336.17-51.50L336.17-51.50L336.17-51.50Q342.26-59.68 342.26-69.25L342.26-69.25L342.26-69.25Q342.26-78.82 335.47-78.82L335.47-78.82L335.47-78.82Q330.60-78.82 326.77-73.43L326.77-73.43L326.77-73.43Q322.94-68.03 321.20-58.81L321.20-58.81L309.72 0L274.57 3.48L298.93-121.80L333.91-125.28L329.90-104.57L329.90-104.57Q327.29-89.96 323.81-82.48ZM398.81 0L378.80 0L410.29-114.84L446.66-114.84L454.66-49.24L487.03-114.84L517.48-114.84L520.61-28.88L520.61-28.88Q521.30-11.83 529.66-6.61L529.66-6.61L529.66-6.61Q527.74-3.13 522.17 0.17L522.17 0.17L522.17 0.17Q516.61 3.48 509.21 3.48L509.21 3.48L509.21 3.48Q501.82 3.48 497.47 1.39L497.47 1.39L497.47 1.39Q493.12-0.70 490.68-4.18L490.68-4.18L490.68-4.18Q486.33-10.44 486.33-22.45L486.33-22.45L486.33-76.21L452.05 0L430.48 0L418.30-78.13L398.81 0Z" fill="url(#editing-outline-gradient)"></path></g></g><style>text {
  font-size: 64px;
  font-family: Arial Black;
  dominant-baseline: central;
  text-anchor: middle;
}</style></svg>